<svg width="32" height="32" viewBox="0 0 32 32" fill="none" xmlns="http://www.w3.org/2000/svg">
<circle cx="16" cy="16" r="16" fill="white"/>
<path d="M18.9166 16C18.9166 17.61 17.61 18.9166 16 18.9166C14.39 18.9166 13.0833 17.61 13.0833 16C13.0833 14.39 14.39 13.0833 16 13.0833C17.61 13.0833 18.9166 14.39 18.9166 16ZM27.6666 16C27.6666 22.44 22.44 27.6666 16 27.6666C9.55998 27.6666 4.33331 22.44 4.33331 16C4.33331 9.55998 9.55998 4.33331 16 4.33331C22.44 4.33331 27.6666 9.55998 27.6666 16ZM25.3333 16H20.6666C20.6666 13.4216 18.5783 11.3333 16 11.3333C13.4216 11.3333 11.3333 13.4216 11.3333 16H6.66665C6.66665 21.145 10.855 25.3333 16 25.3333C21.145 25.3333 25.3333 21.145 25.3333 16Z" fill="url(#paint0_linear_106_6)"/>
<defs>
<linearGradient id="paint0_linear_106_6" x1="16" y1="4.33331" x2="16" y2="27.6666" gradientUnits="userSpaceOnUse">
<stop stop-color="#FF4040"/>
<stop offset="1" stop-color="#B80000"/>
</linearGradient>
</defs>
</svg>
